<?xml version="1.0" standalone="no"?><!DOCTYPE svg PUBLIC "-//W3C//DTD SVG 1.1//EN" "http://www.w3.org/Graphics/SVG/1.1/DTD/svg11.dtd"><svg t="1695195761945" class="icon" viewBox="0 0 1024 1024" version="1.1" xmlns="http://www.w3.org/2000/svg" p-id="5940" data-spm-anchor-id="a313x.search_index.0.i37.67663a81nq43El" xmlns:xlink="http://www.w3.org/1999/xlink" width="200" height="200"><path d="M563.624 832.032H362.676c-11.782 0-21.342-9.562-21.342-21.344s9.562-21.312 21.342-21.312h200.948c11.75 0 21.312 9.532 21.312 21.312s-9.562 21.344-21.312 21.344zM258.974 661.378H64.01c-11.782 0-21.342-9.562-21.342-21.344s9.562-21.344 21.342-21.344h194.964c11.796 0 21.344 9.562 21.344 21.344s-9.546 21.344-21.344 21.344zM120.306 490.696H21.34c-11.782 0-21.328-9.546-21.328-21.328s9.546-21.344 21.328-21.344h98.966c11.78 0 21.328 9.562 21.328 21.344s-9.548 21.328-21.328 21.328zM192.43 320.028H106.666c-11.782 0-21.328-9.546-21.328-21.328s9.546-21.342 21.328-21.342h85.764c11.782 0 21.328 9.562 21.328 21.342s-9.548 21.328-21.328 21.328z" fill="#e6e6e6" p-id="5941" data-spm-anchor-id="a313x.search_index.0.i34.67663a81nq43El" class=""></path><path d="M1008.738 627.598c-13.062-22.686-45.154-36.966-100.936-44.998-39.188-5.656-81.248-6.844-109.622-6.844-3.782 0-7.124 0.032-10.032 0.062l-194.464-289.026a21.292 21.292 0 0 0-21.688-9.046c-28.782 5.532-56.532 8.328-82.482 8.328-59.234 0-109.84-14.078-150.434-41.842-29.484-20.172-42.718-40.688-43.468-41.876-5.906-10.092-18.718-13.328-28.876-7.5-1.688 0.954-41.562 24.17-83.67 80.388-24.358 32.514-44.702 69.67-60.466 110.418-19.546 50.544-32.062 106.81-37.186 167.246a21.36 21.36 0 0 0 10.828 20.406l456.942 255.994a21.304 21.304 0 0 0 10.438 2.718h426.646c9.968 0 18.624-6.906 20.812-16.656 3.034-13.526 28.844-133.742-2.342-187.772z" fill="#bfbfbf" p-id="5942" data-spm-anchor-id="a313x.search_index.0.i32.67663a81nq43El" class=""></path><path d="M1011.082 815.376c1.406-6.156 7.5-34.532 10.782-68.686H586.498L96.026 477.758c-4.86 24.204-8.422 49.282-10.608 75.154a21.36 21.36 0 0 0 10.828 20.406l456.942 255.994a21.304 21.304 0 0 0 10.438 2.718h426.646a21.324 21.324 0 0 0 20.81-16.654z" fill="#CCD1D9" p-id="5943"></path><path d="M1011.082 815.376c1.406-6.156 7.5-34.532 10.782-68.686H586.498L96.026 477.758c-4.86 24.204-8.422 49.282-10.608 75.154a21.36 21.36 0 0 0 10.828 20.406l456.942 255.994a21.304 21.304 0 0 0 10.438 2.718h426.646a21.324 21.324 0 0 0 20.81-16.654z" fill="#CCD1D9" p-id="5944"></path><path d="M1011.082 815.376c1.406-6.156 7.5-34.532 10.782-68.686H586.498L96.026 477.758c-4.86 24.204-8.422 49.282-10.608 75.154a21.36 21.36 0 0 0 10.828 20.406l456.942 255.994a21.304 21.304 0 0 0 10.438 2.718h426.646a21.324 21.324 0 0 0 20.81-16.654z" fill="#CCD1D9" p-id="5945"></path><path d="M1011.082 815.376c1.406-6.156 7.5-34.532 10.782-68.686H586.498L96.026 477.758c-4.86 24.204-8.422 49.282-10.608 75.154a21.36 21.36 0 0 0 10.828 20.406l456.942 255.994a21.304 21.304 0 0 0 10.438 2.718h426.646a21.324 21.324 0 0 0 20.81-16.654z" fill="#CCD1D9" p-id="5946"></path><path d="M1011.082 815.376c1.406-6.156 7.5-34.532 10.782-68.686H586.498L96.026 477.758c-4.86 24.204-8.422 49.282-10.608 75.154a21.36 21.36 0 0 0 10.828 20.406l456.942 255.994a21.304 21.304 0 0 0 10.438 2.718h426.646a21.324 21.324 0 0 0 20.81-16.654z" fill="#E6E9ED" p-id="5947"></path><path d="M593.686 286.792a21.292 21.292 0 0 0-21.688-9.046c-28.782 5.532-56.532 8.328-82.482 8.328-59.234 0-109.84-14.078-150.434-41.842-29.484-20.172-42.718-40.688-43.468-41.876-5.906-10.092-18.718-13.328-28.876-7.5-1.204 0.688-21.92 12.734-49 40.078 0.124 0.188 120.592 168.964 410.82 103.654l-34.872-51.796z" fill="#e6e6e6" p-id="5948" data-spm-anchor-id="a313x.search_index.0.i33.67663a81nq43El" class=""></path><path d="M635.06 472.696c3.312 0 6.624-0.766 9.748-2.36l48.28-24.86a20.508 20.508 0 0 0 4.968-3.562l-23.436-34.842c-0.344 0.156-0.688 0.296-1.062 0.468l-48.28 24.86c-10.468 5.388-14.594 18.248-9.218 28.716a21.362 21.362 0 0 0 19 11.58zM672.184 529.242c3.312 0 6.624-0.75 9.75-2.36l48.28-24.86a20.6 20.6 0 0 0 5.532-4.11l-23.312-34.624c-0.562 0.25-1.156 0.5-1.75 0.796l-48.28 24.86c-10.468 5.39-14.594 18.25-9.218 28.734a21.366 21.366 0 0 0 18.998 11.564zM709.306 583.974a21.06 21.06 0 0 0 9.75-2.376l48.25-24.844a20.732 20.732 0 0 0 5.376-3.906l-23.344-34.732a16.64 16.64 0 0 0-1.532 0.704l-48.282 24.842c-10.468 5.406-14.592 18.282-9.218 28.75a21.376 21.376 0 0 0 19 11.562z" fill="#e6e6e6" p-id="5949" data-spm-anchor-id="a313x.search_index.0.i38.67663a81nq43El" class=""></path><path d="M895.99 832.032h42.688c0-11.782-9.562-21.344-21.344-21.344s-21.344 9.562-21.344 21.344zM810.682 832.032h42.654c0-11.782-9.562-21.344-21.344-21.344s-21.31 9.562-21.31 21.344zM725.338 832.032h42.656c0-11.782-9.562-21.344-21.312-21.344-11.812 0-21.344 9.562-21.344 21.344zM682.684 832.032c0-11.782-9.562-21.344-21.344-21.344s-21.342 9.562-21.342 21.344h42.686zM563.624 832.032h33.718c-0.032-11.782-9.562-21.344-21.344-21.344-11.124 0-20.25 8.532-21.25 19.406 2.782 1.282 5.812 1.938 8.876 1.938zM233.334 616.628c-10.25-5.782-23.264-2.156-29.062 8.094l-3.89 6.938 37.218 20.844 3.844-6.812c5.782-10.25 2.156-23.25-8.11-29.064zM162.024 576.412c-10.266-5.782-23.266-2.156-29.062 8.094l-4.016 7.124 37.218 20.842 3.954-6.998c5.796-10.25 2.172-23.28-8.094-29.062zM518.592 777.532c-10.262-5.782-23.278-2.156-29.06 8.094l-3.438 6.094 37.216 20.876 3.376-6c5.796-10.252 2.172-23.284-8.094-29.064zM447.284 737.314c-10.266-5.782-23.28-2.156-29.062 8.094l-3.562 6.312 37.234 20.842 3.484-6.186c5.796-10.25 2.156-23.28-8.094-29.062zM375.972 697.098c-10.266-5.782-23.282-2.156-29.062 8.094l-3.672 6.5 37.218 20.842 3.61-6.376c5.78-10.28 2.156-23.28-8.094-29.06zM303.724 656.378c-10.436-5.468-23.328-1.406-28.78 9.032l-3.234 6.218 37.234 20.844 3.828-7.312c5.452-10.468 1.404-23.344-9.048-28.782z" fill="#CCD1D9" p-id="5950"></path></svg>